<svg width="30" height="30" viewBox="0 0 30 30" fill="none" xmlns="http://www.w3.org/2000/svg">
<path d="M8.72887 17.9733L6.91604 25.8232C6.8599 26.0609 6.87676 26.31 6.9644 26.538C7.05204 26.766 7.20639 26.9622 7.40729 27.1011C7.6082 27.24 7.84632 27.3151 8.09055 27.3165C8.33479 27.318 8.57378 27.2457 8.77632 27.1092L15.4011 22.6927L22.0258 27.1092C22.2331 27.2468 22.4775 27.3177 22.7262 27.3122C22.9749 27.3068 23.2159 27.2253 23.417 27.0787C23.618 26.9322 23.7693 26.7276 23.8505 26.4925C23.9318 26.2574 23.9391 26.003 23.8715 25.7636L21.6462 17.9769L27.165 13.0105C27.3418 12.8513 27.468 12.6439 27.5281 12.4137C27.5882 12.1836 27.5795 11.9409 27.5031 11.7157C27.4268 11.4904 27.286 11.2925 27.0984 11.1464C26.9107 11.0002 26.6843 10.9123 26.4472 10.8935L19.511 10.3411L16.5095 3.69692C16.4137 3.48297 16.2582 3.3013 16.0615 3.17382C15.8648 3.04635 15.6354 2.97852 15.4011 2.97852C15.1667 2.97852 14.9373 3.04635 14.7407 3.17382C14.544 3.3013 14.3884 3.48297 14.2927 3.69692L11.2912 10.3411L4.35496 10.8923C4.12191 10.9107 3.89912 10.996 3.71323 11.1377C3.52735 11.2795 3.38624 11.4718 3.30679 11.6917C3.22734 11.9115 3.21292 12.1496 3.26524 12.3775C3.31757 12.6053 3.43443 12.8133 3.60184 12.9764L8.72887 17.9733ZM12.2 12.71C12.4172 12.6929 12.6258 12.6177 12.8039 12.4922C12.982 12.3668 13.123 12.1957 13.2123 11.997L15.4011 7.15347L17.5899 11.997C17.6791 12.1957 17.8202 12.3668 17.9983 12.4922C18.1764 12.6177 18.385 12.6929 18.6021 12.71L23.4347 13.0932L19.455 16.6751C19.1095 16.9866 18.972 17.4659 19.0985 17.9137L20.623 23.2487L16.0775 20.218C15.878 20.0841 15.6432 20.0126 15.4029 20.0126C15.1626 20.0126 14.9278 20.0841 14.7283 20.218L9.97839 23.385L11.2559 17.854C11.3027 17.6506 11.2964 17.4386 11.2376 17.2383C11.1788 17.038 11.0695 16.8562 10.9201 16.7104L7.22386 13.1066L12.2 12.71Z" fill="#F3CD03"/>
</svg>
